<svg width="108.2561767578125px" height="121.39999999999999px" xmlns="http://www.w3.org/2000/svg" viewBox="195.87191162109374 14.300000000000004 108.2561767578125 121.39999999999999" style="background: rgba(0, 0, 0, 0);" preserveAspectRatio="xMidYMid"><defs><linearGradient id="editing-shiny-gradient" x1="0.04322727117869957" x2="0.9567727288213004" y1="0.2966316784620999" y2="0.7033683215379001" gradientUnits="objectBoundingBox"><stop offset="0.0" stop-color="#ffb200"></stop><stop offset="0.5" stop-color="#e10057"></stop><stop offset="1.0" stop-color="#5A1A80"></stop></linearGradient><linearGradient id="editing-shiny-gradient2" x1="0" x2="0" y1="0" y2="1"><stop offset="0.2" stop-color="#fff" stop-opacity="0.8"></stop><stop offset="0.8" stop-color="#fff" stop-opacity="0"></stop></linearGradient><filter id="editing-shiny2" x="-100%" y="-100%" width="300%" height="300%"><feMorphology operator="erode" radius="2"></feMorphology></filter><filter id="editing-shiny" x="-100%" y="-100%" width="300%" height="300%"><feFlood flood-color="#fff" result="flood"></feFlood><feConvolveMatrix in="SourceGraphic" result="conv" order="8,8" divisor="1" kernelMatrix="0 0 0 0 0 0 0 0 0 0 0 1 1 0 0 0 0 0 0 1 1 0 0 0 0 0 1 0 0 1 0 0 0 0 1 0 0 1 0 0 0 1 0 0 0 0 1 0 0 1 1 0 0 1 1 0 0 0 0 1 1 0 0 0 "></feConvolveMatrix><feOffset dx="0" dy="4" in="conv" result="offset"></feOffset><feComposite operator="in" in="flood" in2="offset" result="comp"></feComposite><feGaussianBlur in="offset" stdDeviation="3" result="shadow"></feGaussianBlur><feColorMatrix in="shadow" type="matrix" values="0.7 0 0 0 0  0 0.7 0 0 0  0 0 0.7 0 0  0 0 0 0.3 0" result="dark-shadow"></feColorMatrix><feOffset dx="0" dy="4" in="dark-shadow" result="offset-shadow"></feOffset><feOffset dx="0" dy="2" in="conv" result="offset-2"></feOffset><feComposite operator="out" in="offset" in2="offset-2" result="edge-diff"></feComposite><feGaussianBlur in="edge-diff" stdDeviation="1" result="edge-blur"></feGaussianBlur><feColorMatrix in="edge-blur" result="edge-shadow" type="matrix" values="0 0 0 0 0  0 0 0 0 0  0 0 0 0 0  0 0 0 0.5 0"></feColorMatrix><feComposite operator="in" in="edge-shadow" in2="offset" result="edge-shadow-in"></feComposite><feOffset dx="0" dy="1" in="edge-shadow-in" result="edge-shadow-final"></feOffset><feMerge result="out"><feMergeNode in="offset-shadow"></feMergeNode><feMergeNode in="comp"></feMergeNode><feMergeNode in="edge-shadow-final"></feMergeNode><feMergeNode in="SourceGraphic"></feMergeNode></feMerge></filter></defs><g filter="url(#editing-shiny)"><g transform="translate(218.4160244166851, 92.60000038146973)"><path d="M21.12-17.98L21.12-17.98L21.12-17.98Q23.42-22.08 23.42-26.24L23.42-26.24L23.42-26.24Q23.42-28.99 21.44-28.99L21.44-28.99L21.44-28.99Q19.90-28.99 18.30-26.37L18.30-26.37L18.30-26.37Q16.64-23.74 16.13-20.35L16.13-20.35L12.80 0L-0.45 1.28L6.08-32.64L16.64-33.92L15.49-27.46L15.49-27.46Q18.62-33.92 25.66-33.92L25.66-33.92L25.66-33.92Q29.38-33.92 31.39-32L31.39-32L31.39-32Q33.41-30.08 33.41-26.14L33.41-26.14L33.41-26.14Q33.41-22.21 30.82-19.71L30.82-19.71L30.82-19.71Q28.22-17.22 23.81-17.22L23.81-17.22L23.81-17.22Q21.89-17.22 21.12-17.98ZM53.57-22.46L53.57-22.46L53.57-22.46Q54.46-24.83 54.46-26.88L54.46-26.88L54.46-26.88Q54.46-30.66 51.39-30.66L51.39-30.66L51.39-30.66Q49.79-30.66 48.48-29.22L48.48-29.22L48.48-29.22Q47.17-27.78 47.17-25.98L47.17-25.98L47.17-25.98Q47.17-24.70 48.19-23.68L48.19-23.68L48.19-23.68Q49.66-22.27 53.44-19.97L53.44-19.97L53.44-19.97Q57.22-17.66 58.66-15.78L58.66-15.78L58.66-15.78Q60.10-13.89 60.10-11.30L60.10-11.30L60.10-11.30Q60.10-8.70 58.85-6.34L58.85-6.34L58.85-6.34Q57.60-3.97 55.36-2.30L55.36-2.30L55.36-2.30Q50.56 1.28 42.88 1.28L42.88 1.28L42.88 1.28Q38.72 1.28 35.52-0.90L35.52-0.90L35.52-0.90Q32.32-3.01 32.32-5.50L32.32-5.50L32.32-5.50Q32.32-8 34.14-9.47L34.14-9.47L34.14-9.47Q35.97-10.94 38.66-10.94L38.66-10.94L38.66-10.94Q41.34-10.94 43.01-9.92L43.01-9.92L43.01-9.92Q42.18-7.81 42.18-6.40L42.18-6.40L42.18-6.40Q42.18-2.18 45.76-2.18L45.76-2.18L45.76-2.18Q47.30-2.18 48.32-3.14L48.32-3.14L48.32-3.14Q49.34-4.10 49.34-5.76L49.34-5.76L49.34-5.76Q49.34-9.02 43.84-12.48L43.84-12.48L43.84-12.48Q39.36-15.42 38.34-16.58L38.34-16.58L38.34-16.58Q36.61-18.62 36.61-21.18L36.61-21.18L36.61-21.18Q36.61-23.74 37.82-26.18L37.82-26.18L37.82-26.18Q39.04-28.61 41.28-30.34L41.28-30.34L41.28-30.34Q45.95-33.92 54.08-33.92L54.08-33.92L54.08-33.92Q58.24-33.92 60.70-32.26L60.70-32.26L60.70-32.26Q63.17-30.59 63.17-27.78L63.17-27.78L63.17-27.78Q63.17-24.96 61.47-23.36L61.47-23.36L61.47-23.36Q59.78-21.76 56.70-21.76L56.70-21.76L56.70-21.76Q54.59-21.76 53.57-22.46Z" fill="url(#editing-shiny-gradient)"></path></g></g><g filter="url(#editing-shiny2)"><g transform="translate(218.41599389910698, 92.60000419616699)"><path d="M21.12-17.98L21.12-17.98L21.12-17.98Q23.42-22.08 23.42-26.24L23.42-26.24L23.42-26.24Q23.42-28.99 21.44-28.99L21.44-28.99L21.44-28.99Q19.90-28.99 18.30-26.37L18.30-26.37L18.30-26.37Q16.64-23.74 16.13-20.35L16.13-20.35L12.80 0L-0.45 1.28L6.08-32.64L16.64-33.92L15.49-27.46L15.49-27.46Q18.62-33.92 25.66-33.92L25.66-33.92L25.66-33.92Q29.38-33.92 31.39-32L31.39-32L31.39-32Q33.41-30.08 33.41-26.14L33.41-26.14L33.41-26.14Q33.41-22.21 30.82-19.71L30.82-19.71L30.82-19.71Q28.22-17.22 23.81-17.22L23.81-17.22L23.81-17.22Q21.89-17.22 21.12-17.98ZM53.57-22.46L53.57-22.46L53.57-22.46Q54.46-24.83 54.46-26.88L54.46-26.88L54.46-26.88Q54.46-30.66 51.39-30.66L51.39-30.66L51.39-30.66Q49.79-30.66 48.48-29.22L48.48-29.22L48.48-29.22Q47.17-27.78 47.17-25.98L47.17-25.98L47.17-25.98Q47.17-24.70 48.19-23.68L48.19-23.68L48.19-23.68Q49.66-22.27 53.44-19.97L53.44-19.97L53.44-19.97Q57.22-17.66 58.66-15.78L58.66-15.78L58.66-15.78Q60.10-13.89 60.10-11.30L60.10-11.30L60.10-11.30Q60.10-8.70 58.85-6.34L58.85-6.34L58.85-6.34Q57.60-3.97 55.36-2.30L55.36-2.30L55.36-2.30Q50.56 1.28 42.88 1.28L42.88 1.28L42.88 1.28Q38.72 1.28 35.52-0.90L35.52-0.90L35.52-0.90Q32.32-3.01 32.32-5.50L32.32-5.50L32.32-5.50Q32.32-8 34.14-9.47L34.14-9.47L34.14-9.47Q35.97-10.94 38.66-10.94L38.66-10.94L38.66-10.94Q41.34-10.94 43.01-9.92L43.01-9.92L43.01-9.92Q42.18-7.81 42.18-6.40L42.18-6.40L42.18-6.40Q42.18-2.18 45.76-2.18L45.76-2.18L45.76-2.18Q47.30-2.18 48.32-3.14L48.32-3.14L48.32-3.14Q49.34-4.10 49.34-5.76L49.34-5.76L49.34-5.76Q49.34-9.02 43.84-12.48L43.84-12.48L43.84-12.48Q39.36-15.42 38.34-16.58L38.34-16.58L38.34-16.58Q36.61-18.62 36.61-21.18L36.61-21.18L36.61-21.18Q36.61-23.74 37.82-26.18L37.82-26.18L37.82-26.18Q39.04-28.61 41.28-30.34L41.28-30.34L41.28-30.34Q45.95-33.92 54.08-33.92L54.08-33.92L54.08-33.92Q58.24-33.92 60.70-32.26L60.70-32.26L60.70-32.26Q63.17-30.59 63.17-27.78L63.17-27.78L63.17-27.78Q63.17-24.96 61.47-23.36L61.47-23.36L61.47-23.36Q59.78-21.76 56.70-21.76L56.70-21.76L56.70-21.76Q54.59-21.76 53.57-22.46Z" fill="url(#editing-shiny-gradient2)"></path></g></g><style>text {
  font-size: 64px;
  font-family: Arial Black;
  dominant-baseline: central;
  text-anchor: middle;
}</style></svg>